<?xml version="1.0" encoding="UTF-8"?><svg id="Layer_2" xmlns="http://www.w3.org/2000/svg" viewBox="0 0 16191.65 2848.36"><defs><style>.cls-1{fill:#46b989;}</style></defs><g id="_图层_1"><path class="cls-1" d="M9801.47,2791.77c-635.45,0-1152.44-516.98-1152.44-1152.43V121.73h527.78v1517.62c0,344.43,280.22,624.64,624.66,624.64s624.65-280.2,624.65-624.64V121.73h527.78v1517.62c0,635.44-516.98,1152.43-1152.43,1152.43Z"/><path class="cls-1" d="M4133.5,2791.77c-635.45,0-1152.43-516.98-1152.43-1152.43V121.73h527.78v1517.62c0,344.43,280.21,624.64,624.65,624.64s624.65-280.2,624.65-624.64V121.73h527.78v1517.62c0,635.44-516.98,1152.43-1152.43,1152.43Z"/><polygon class="cls-1" points="2017.04 121.73 1301.55 936.2 586.07 121.73 0 121.73 0 2732.84 527.78 2732.84 527.78 854.94 1301.55 1755.85 2075.33 854.93 2075.33 2732.84 2603.12 2732.84 2603.12 121.73 2017.04 121.73"/><polygon class="cls-1" points="7682.89 121.73 6967.4 936.2 6251.91 121.73 5665.83 121.73 5665.83 2732.84 6193.62 2732.84 6193.62 854.93 6967.4 1755.85 7741.17 854.93 7741.17 2732.84 8268.96 2732.84 8268.96 121.73 7682.89 121.73"/><path class="cls-1" d="M14767.47,0c-785.29,0-1424.16,638.88-1424.16,1424.18s638.87,1424.18,1424.16,1424.18,1424.18-638.88,1424.18-1424.18S15552.77,0,14767.47,0ZM15684.35,1424.18c0,505.58-411.31,916.88-916.88,916.88s-916.87-411.31-916.87-916.88,411.31-916.88,916.87-916.88,916.88,411.31,916.88,916.88Z"/><path class="cls-1" d="M12254.52,1132.43c-231.66-86.72-564.63-202.74-457.43-444.9,127.1-287.1,674.04-203.38,1048.73,143.09l150.44-441.82s-343.08-334.5-902.53-326.73c-483.24,6.71-816.56,313.99-811.03,712.51,6.51,468.69,369.1,644.15,781.19,786.63,281.82,97.44,560.45,212.2,504.05,483.73-59.89,288.34-616.79,435.75-1219.14-155.03l-164.09,478.35c560.49,545.48,1158.07,458.94,1452.26,314.99,268.92-131.59,465.84-392.87,465.84-712.78,0-571.51-538.33-722.02-848.3-838.04Z"/></g></svg>